<svg viewBox="0 277.5 400 400" xmlns="http://www.w3.org/2000/svg">
  <path style="fill:#2184c6" d="M200 558.47c-1-3.9-1.24-153.92-.3-160.53a5.8 5.8 0 0 1 1.29-.27c22.46.07 44.92 0 67.38.31a109.3 109.3 0 0 1 38.07 7.3c12.71 4.91 23.78 12.28 32.12 23.24a74 74 0 0 1 14.91 37 117 117 0 0 1 .44 24.95c-1.42 14.44-6.2 27.63-15.12 39.14a70.53 70.53 0 0 1-29.64 22.27 93 93 0 0 1-35.47 6.61c-19.42.06-38.83 0-58.24 0H200Zm58-48.11a80.7 80.7 0 0 0 13.91-1.11A28.46 28.46 0 0 0 290 498.38a23.3 23.3 0 0 0 5.36-13.64 82.5 82.5 0 0 0-.9-15.31 20.86 20.86 0 0 0-11.36-16 46.06 46.06 0 0 0-23.25-4.9 10.4 10.4 0 0 0-1.84.4ZM43 558.28V397.87h56.37c.17 3.75.06 7.32.07 10.89s0 7.05 0 10.57v32.4h35.47c.42-5.87.27-11.76.31-17.65s0-12 0-18v-17.79c2.12-.59 52.74-.79 56.42-.21.13 53.27-.07 106.59-.13 160.14h-56.14q0-9.26-.06-18.45v-37c-12-.36-23.76-.24-35.77-.14v55.27c-1.96.67-51.27.96-56.54.38"/>
</svg>